<?xml version="1.0" encoding="UTF-8" standalone="no"?><!DOCTYPE svg PUBLIC "-//W3C//DTD SVG 1.1//EN" "http://www.w3.org/Graphics/SVG/1.1/DTD/svg11.dtd"><svg width="100%" height="100%" viewBox="0 0 456 456" version="1.1" xmlns="http://www.w3.org/2000/svg" xmlns:xlink="http://www.w3.org/1999/xlink" xml:space="preserve" xmlns:serif="http://www.serif.com/" style="fill-rule:evenodd;clip-rule:evenodd;stroke-linejoin:round;stroke-miterlimit:2;"><g id="Layer2"><g><path d="M228.079,273.25c3.947,-1.262 52.345,-18.148 88.184,-29.333c15.514,-4.841 28.533,-8.623 34.314,-9.621c15.306,-2.644 68.092,-11.649 88.363,9.621c5.718,6.001 8.849,14.412 7.819,26.056c0,-0 -0.19,0.97 -0.67,2.633c5.288,-14.516 6.564,-29.81 6.5,-44.375c-0.064,-14.383 -1.212,-29.584 -6.5,-44.1c0.48,1.663 0.67,2.633 0.67,2.633c1.03,11.644 -2.101,20.055 -7.819,26.056c-20.271,21.27 -73.057,12.266 -88.363,9.621c-5.781,-0.998 -18.8,-4.78 -34.314,-9.621c-36.336,-11.34 -85.548,-27.881 -88.29,-28.718l-0.001,0.04c-3.177,0.984 -52.152,17.526 -88.295,28.791c-15.507,4.834 -28.521,8.609 -34.298,9.606c-15.301,2.64 -68.063,11.63 -88.325,-9.606c-5.716,-5.991 -8.845,-14.388 -7.816,-26.012c0,-0 0.19,-0.969 0.671,-2.629c-5.287,14.491 -6.434,29.668 -6.498,44.027c-0.064,14.542 1.211,29.81 6.498,44.302c-0.481,-1.66 -0.671,-2.629 -0.671,-2.629c-1.029,-11.624 2.1,-20.021 7.816,-26.012c20.262,-21.236 73.024,-12.246 88.325,-9.606c5.777,0.997 18.791,4.772 34.298,9.606c35.821,11.165 84.308,28 88.262,29.261l0.002,0.053c0.024,-0.008 0.051,-0.016 0.083,-0.026c0.019,0.006 0.038,0.012 0.054,0.017l0.001,-0.035Z" style="fill:url(#_Linear1);"/><path d="M227.81,67.061c-0.017,-0.002 -0.036,-0.005 -0.056,-0.008l-0,-0.005c-0.17,-0.045 -0.342,-0.091 -0.515,-0.137c-5.359,-1.75 -40.737,-17.869 -81.97,-17.869c-12.131,-0.083 -24.903,1.349 -38.003,5.165c-15,4.369 -25.256,9.195 -32.207,13.962c-1.649,1.13 -3.133,2.444 -4.431,3.903c0.925,-1.673 56.768,-67.124 157.164,-67.592c95.672,-0.446 150.299,59.176 156.641,66.985c-1.16,-1.218 -2.455,-2.325 -3.873,-3.296c-6.135,-4.207 -14.843,-8.46 -27.115,-12.405c-1.619,-0.527 -3.303,-1.047 -5.056,-1.557c-13.1,-3.816 -25.872,-5.248 -38.003,-5.165c-41.854,-0.009 -77.683,16.595 -82.222,17.936c-0.077,0.021 -0.153,0.041 -0.229,0.061c-0.049,0.011 -0.09,0.018 -0.125,0.022Zm0.018,0.006l-0.074,0.019l-0,-0.008c0.024,-0.008 0.042,-0.013 0.055,-0.015c0.005,0.001 0.011,0.002 0.019,0.004Z" style="fill:url(#_Linear2);"/><path d="M76.644,109.402c-7.252,-4.191 -11.846,-11.81 -12.168,-20.179c-0.321,-8.37 3.674,-16.319 10.583,-21.054c6.951,-4.767 17.207,-9.593 32.207,-13.962c57.528,-16.757 117.588,12.603 120.559,12.855c-0.541,-0.178 -66.061,32.498 -83.666,37.904c-14.154,4.346 -44.984,17.7 -67.515,4.436Z" style="fill:#203291;"/><path d="M446.782,269.999c0,0 -9.548,48.511 -64.302,47.34c-51.001,-1.089 -130.585,-32.912 -151.032,-42.357c-1.504,-0.695 -2.689,-1.269 -3.518,-1.7c0.819,-0.123 104.327,-36.596 123.876,-39.962c19.549,-3.366 99.636,-15.849 94.976,36.679Z" style="fill:#87e5e2;"/><path d="M9.208,187.407c0,-0 9.548,-48.511 64.302,-47.341c54.754,1.17 142.453,37.763 154.55,44.058c-0.818,0.123 -103.494,35.334 -123.043,38.7c-19.549,3.366 -100.469,17.111 -95.809,-35.417Z" style="fill:#8dd4f0;"/><path d="M9.208,270.01c0,-0 9.548,48.51 64.302,47.34c54.754,-1.17 142.453,-37.762 154.55,-44.058c-0.818,-0.123 -106.606,-37.906 -126.155,-41.272c-19.549,-3.365 -97.357,-14.539 -92.697,37.99Z" style="fill:#203291;"/><path d="M446.782,187.396c0,0 -9.548,-48.51 -64.302,-47.34c-54.754,1.17 -142.452,37.762 -154.55,44.057c0.819,0.123 103.495,35.335 123.044,38.7c19.549,3.366 100.468,17.112 95.808,-35.417Z" style="fill:#203291;"/><path d="M378.975,109.402c7.252,-4.191 11.846,-11.81 12.168,-20.179c0.322,-8.37 -3.674,-16.319 -10.583,-21.054c-6.951,-4.767 -17.206,-9.593 -32.207,-13.962c-57.528,-16.757 -117.588,12.603 -120.559,12.855c0.541,-0.178 66.062,32.498 83.666,37.904c14.154,4.346 44.985,17.7 67.515,4.436Z" style="fill:#89e3e2;"/><path d="M228.032,388.939c-0.017,0.002 -0.036,0.005 -0.056,0.008l-0,0.005c-0.17,0.045 -0.342,0.091 -0.515,0.137c-5.359,1.75 -40.737,17.869 -81.97,17.869c-12.131,0.083 -24.903,-1.349 -38.003,-5.165c-15,-4.369 -25.255,-9.195 -32.207,-13.962c-1.649,-1.13 -3.132,-2.444 -4.431,-3.903c0.925,1.673 56.768,67.124 157.164,67.592c95.673,0.446 150.299,-59.176 156.641,-66.985c-1.16,1.218 -2.455,2.325 -3.873,3.296c-6.135,4.207 -14.843,8.46 -27.115,12.405c-1.619,0.527 -3.303,1.047 -5.056,1.557c-13.099,3.816 -25.872,5.248 -38.003,5.165c-41.854,0.009 -77.682,-16.595 -82.222,-17.936c-0.076,-0.021 -0.153,-0.041 -0.229,-0.061c-0.048,-0.011 -0.09,-0.018 -0.125,-0.022Zm0.018,-0.006l-0.074,-0.019l-0,0.008c0.024,0.008 0.043,0.013 0.055,0.015c0.005,-0.001 0.012,-0.002 0.019,-0.004Z" style="fill:url(#_Linear3);"/><path d="M76.866,346.598c-7.252,4.191 -11.846,11.81 -12.168,20.179c-0.321,8.37 3.674,16.319 10.583,21.054c6.952,4.767 17.207,9.593 32.207,13.962c57.528,16.757 117.588,-12.603 120.559,-12.855c-0.541,0.178 -66.061,-32.498 -83.666,-37.904c-14.153,-4.346 -44.984,-17.7 -67.515,-4.436Z" style="fill:#8dd4f0;"/><path d="M379.198,346.598c7.252,4.191 11.846,11.81 12.167,20.179c0.322,8.37 -3.674,16.319 -10.583,21.054c-6.951,4.767 -17.206,9.593 -32.207,13.962c-57.528,16.757 -117.588,-12.603 -120.559,-12.855c0.541,0.178 66.062,-32.498 83.666,-37.904c14.154,-4.346 44.985,-17.7 67.516,-4.436Z" style="fill:#203291;"/></g></g><defs><linearGradient id="_Linear1" x1="0" y1="0" x2="1" y2="0" gradientUnits="userSpaceOnUse" gradientTransform="matrix(-235.131,19.3973,19.3973,235.131,460.388,301.993)"><stop offset="0" style="stop-color:#203291;stop-opacity:1"/><stop offset="1" style="stop-color:#69bac9;stop-opacity:1"/></linearGradient><linearGradient id="_Linear2" x1="0" y1="0" x2="1" y2="0" gradientUnits="userSpaceOnUse" gradientTransform="matrix(140.152,-12.6327,12.6327,140.152,147.968,-16.7591)"><stop offset="0" style="stop-color:#87e5e2;stop-opacity:1"/><stop offset="1" style="stop-color:#203291;stop-opacity:1"/></linearGradient><linearGradient id="_Linear3" x1="0" y1="0" x2="1" y2="0" gradientUnits="userSpaceOnUse" gradientTransform="matrix(127.881,-4.33995,4.33995,127.881,119.815,478.953)"><stop offset="0" style="stop-color:#203291;stop-opacity:1"/><stop offset="1" style="stop-color:#69bac9;stop-opacity:1"/></linearGradient></defs></svg>